<svg width="1200" height="630" viewBox="0 0 1200 630" fill="none" xmlns="http://www.w3.org/2000/svg">
<g clip-path="url(#clip0_2827_1106)">
<rect width="1200" height="630" fill="#050505"/>
<g filter="url(#filter0_f_2827_1106)">
<ellipse cx="497" cy="287.5" rx="149" ry="89.5" fill="#0026E2" fill-opacity="0.78"/>
</g>
<g filter="url(#filter1_f_2827_1106)">
<ellipse cx="723.5" cy="398" rx="208.5" ry="83" fill="#096124" fill-opacity="0.75"/>
</g>
<circle cx="429.5" cy="315.5" r="41.5" stroke="#4ADE80" stroke-width="20"/>
<path d="M514.273 362V268.909H545.727C553 268.909 558.97 270.152 563.636 272.636C568.303 275.091 571.758 278.47 574 282.773C576.242 287.076 577.364 291.97 577.364 297.455C577.364 302.939 576.242 307.803 574 312.045C571.758 316.288 568.318 319.621 563.682 322.045C559.045 324.439 553.121 325.636 545.909 325.636H520.455V315.455H545.545C550.515 315.455 554.515 314.727 557.545 313.273C560.606 311.818 562.818 309.758 564.182 307.091C565.576 304.394 566.273 301.182 566.273 297.455C566.273 293.727 565.576 290.47 564.182 287.682C562.788 284.894 560.561 282.742 557.5 281.227C554.439 279.682 550.394 278.909 545.364 278.909H525.545V362H514.273ZM558.091 320.182L581 362H567.909L545.364 320.182H558.091ZM623.216 363.455C616.489 363.455 610.686 361.97 605.807 359C600.958 356 597.216 351.818 594.58 346.455C591.973 341.061 590.67 334.788 590.67 327.636C590.67 320.485 591.973 314.182 594.58 308.727C597.216 303.242 600.883 298.97 605.58 295.909C610.307 292.818 615.822 291.273 622.125 291.273C625.761 291.273 629.352 291.879 632.898 293.091C636.443 294.303 639.67 296.273 642.58 299C645.489 301.697 647.807 305.273 649.534 309.727C651.261 314.182 652.125 319.667 652.125 326.182V330.727H598.307V321.455H641.216C641.216 317.515 640.428 314 638.852 310.909C637.307 307.818 635.095 305.379 632.216 303.591C629.367 301.803 626.004 300.909 622.125 300.909C617.852 300.909 614.155 301.97 611.034 304.091C607.943 306.182 605.564 308.909 603.898 312.273C602.231 315.636 601.398 319.242 601.398 323.091V329.273C601.398 334.545 602.307 339.015 604.125 342.682C605.973 346.318 608.534 349.091 611.807 351C615.08 352.879 618.883 353.818 623.216 353.818C626.034 353.818 628.58 353.424 630.852 352.636C633.155 351.818 635.14 350.606 636.807 349C638.473 347.364 639.761 345.333 640.67 342.909L651.034 345.818C649.943 349.333 648.11 352.424 645.534 355.091C642.958 357.727 639.777 359.788 635.989 361.273C632.201 362.727 627.943 363.455 623.216 363.455ZM679.17 268.909V362H668.443V268.909H679.17ZM719.364 363.636C714.939 363.636 710.924 362.803 707.318 361.136C703.712 359.439 700.848 357 698.727 353.818C696.606 350.606 695.545 346.727 695.545 342.182C695.545 338.182 696.333 334.939 697.909 332.455C699.485 329.939 701.591 327.97 704.227 326.545C706.864 325.121 709.773 324.061 712.955 323.364C716.167 322.636 719.394 322.061 722.636 321.636C726.879 321.091 730.318 320.682 732.955 320.409C735.621 320.106 737.561 319.606 738.773 318.909C740.015 318.212 740.636 317 740.636 315.273V314.909C740.636 310.424 739.409 306.939 736.955 304.455C734.53 301.97 730.848 300.727 725.909 300.727C720.788 300.727 716.773 301.848 713.864 304.091C710.955 306.333 708.909 308.727 707.727 311.273L697.545 307.636C699.364 303.394 701.788 300.091 704.818 297.727C707.879 295.333 711.212 293.667 714.818 292.727C718.455 291.758 722.03 291.273 725.545 291.273C727.788 291.273 730.364 291.545 733.273 292.091C736.212 292.606 739.045 293.682 741.773 295.318C744.53 296.955 746.818 299.424 748.636 302.727C750.455 306.03 751.364 310.455 751.364 316V362H740.636V352.545H740.091C739.364 354.061 738.152 355.682 736.455 357.409C734.758 359.136 732.5 360.606 729.682 361.818C726.864 363.03 723.424 363.636 719.364 363.636ZM721 354C725.242 354 728.818 353.167 731.727 351.5C734.667 349.833 736.879 347.682 738.364 345.045C739.879 342.409 740.636 339.636 740.636 336.727V326.909C740.182 327.455 739.182 327.955 737.636 328.409C736.121 328.833 734.364 329.212 732.364 329.545C730.394 329.848 728.47 330.121 726.591 330.364C724.742 330.576 723.242 330.758 722.091 330.909C719.303 331.273 716.697 331.864 714.273 332.682C711.879 333.47 709.939 334.667 708.455 336.273C707 337.848 706.273 340 706.273 342.727C706.273 346.455 707.652 349.273 710.409 351.182C713.197 353.061 716.727 354 721 354ZM775.352 388.182C773.534 388.182 771.913 388.03 770.489 387.727C769.064 387.455 768.08 387.182 767.534 386.909L770.261 377.455C772.867 378.121 775.17 378.364 777.17 378.182C779.17 378 780.943 377.106 782.489 375.5C784.064 373.924 785.504 371.364 786.807 367.818L788.807 362.364L762.989 292.182H774.625L793.898 347.818H794.625L813.898 292.182H825.534L795.898 372.182C794.564 375.788 792.913 378.773 790.943 381.136C788.973 383.53 786.686 385.303 784.08 386.455C781.504 387.606 778.595 388.182 775.352 388.182Z" fill="white"/>
</g>
<defs>
<filter id="filter0_f_2827_1106" x="-33.7" y="-183.7" width="1061.4" height="942.4" filterUnits="userSpaceOnUse" color-interpolation-filters="sRGB">
<feFlood flood-opacity="0" result="BackgroundImageFix"/>
<feBlend mode="normal" in="SourceGraphic" in2="BackgroundImageFix" result="shape"/>
<feGaussianBlur stdDeviation="190.85" result="effect1_foregroundBlur_2827_1106"/>
</filter>
<filter id="filter1_f_2827_1106" x="225.3" y="25.3" width="996.4" height="745.4" filterUnits="userSpaceOnUse" color-interpolation-filters="sRGB">
<feFlood flood-opacity="0" result="BackgroundImageFix"/>
<feBlend mode="normal" in="SourceGraphic" in2="BackgroundImageFix" result="shape"/>
<feGaussianBlur stdDeviation="144.85" result="effect1_foregroundBlur_2827_1106"/>
</filter>
<clipPath id="clip0_2827_1106">
<rect width="1200" height="630" fill="white"/>
</clipPath>
</defs>
</svg>
